<?xml version="1.0" standalone="no"?>
<!DOCTYPE svg PUBLIC "-//W3C//DTD SVG 20010904//EN"
 "http://www.w3.org/TR/2001/REC-SVG-20010904/DTD/svg10.dtd">
<svg version="1.0" xmlns="http://www.w3.org/2000/svg"
 width="400.000000pt" height="125.000000pt" viewBox="0 0 400.000000 125.000000"
 preserveAspectRatio="xMidYMid meet">

<g transform="translate(0.000000,125.000000) scale(0.100000,-0.100000)"
fill="#000000" stroke="none">
<path d="M1723 1012 c-106 -38 -164 -100 -179 -190 -11 -67 11 -126 64 -173
45 -40 59 -45 281 -109 117 -34 159 -92 111 -153 -36 -45 -163 -63 -233 -33
-42 17 -87 70 -87 102 0 23 -2 24 -84 24 l-83 0 8 -51 c22 -139 151 -224 339
-222 143 2 237 45 288 132 22 38 27 58 27 117 0 60 -4 77 -27 112 -39 58 -93
86 -253 128 -111 30 -146 44 -169 66 -91 91 99 182 218 104 14 -8 30 -31 37
-51 l13 -35 78 0 c75 0 78 1 78 24 0 77 -52 149 -137 188 -85 40 -210 49 -290
20z"/>
<path d="M2454 1010 c-182 -60 -279 -277 -229 -513 8 -37 27 -90 42 -118 107
-197 402 -237 564 -76 146 145 151 459 10 620 -18 20 -61 51 -96 68 -85 42
-199 49 -291 19z m193 -131 c38 -14 81 -56 106 -104 29 -56 36 -200 13 -279
-31 -105 -115 -166 -213 -152 -86 12 -141 67 -168 171 -18 72 -19 122 -1 198
17 73 56 131 103 156 42 22 116 27 160 10z"/>
<path d="M3770 1013 c-66 -25 -81 -103 -29 -147 17 -14 42 -26 56 -26 35 0 83
51 83 89 0 53 -64 102 -110 84z m59 -18 c67 -34 50 -126 -26 -141 -80 -16
-116 115 -40 146 31 12 34 12 66 -5z"/>
<path d="M3760 930 c0 -27 5 -50 10 -50 6 0 10 20 10 45 0 47 4 52 30 35 13
-9 13 -12 -2 -24 -16 -11 -16 -15 -2 -34 19 -27 39 -29 22 -3 -9 15 -9 23 1
35 19 22 -2 46 -40 46 -28 0 -29 -2 -29 -50z"/>
<path d="M200 1008 c0 -2 -1 -177 -3 -391 l-2 -387 293 0 292 0 0 65 0 65
-210 0 -210 0 0 100 0 100 195 0 195 0 0 65 0 65 -195 0 -195 0 0 90 0 90 210
0 210 0 0 70 0 70 -290 0 c-159 0 -290 -1 -290 -2z"/>
<path d="M850 621 l0 -391 80 0 80 0 0 114 0 114 128 4 c148 6 217 27 276 84
50 48 68 88 74 161 7 93 -12 148 -72 208 -77 77 -117 87 -363 93 l-203 4 0
-391z m381 239 c80 -22 122 -117 84 -189 -26 -52 -80 -71 -202 -71 l-103 0 0
135 0 135 93 0 c50 0 108 -5 128 -10z"/>
<path d="M3010 620 l0 -390 81 0 82 0 -5 265 c-3 146 -4 265 -3 263 2 -2 25
-46 53 -98 27 -52 94 -169 149 -260 l99 -165 87 -3 87 -3 -2 388 -3 388 -78 3
-78 3 3 -271 c2 -148 1 -270 -2 -270 -3 1 -20 33 -38 73 -18 40 -86 160 -150
267 l-117 195 -82 3 -83 3 0 -391z"/>
</g>
</svg>
